<svg xmlns="http://www.w3.org/2000/svg" viewBox="0 0 64 64" fill="none">
  <rect width="64" height="64" rx="14" fill="#2d4a2b"/>
  <path d="M10 38c2-8 8-14 16-15 3-.5 5 1 6 3 1-2 3-4 6-4 4 0 7 3 7 7 0 2-1 4-2 5 1 0 2 1 2 2 0 2-2 3-4 3-2 0-3-1-4-2-1 1-3 2-5 2-4 0-7-2-9-5-2 1-4 2-6 2-2 0-4-1-5-3 0-1 0-2 1-3z" fill="#6bbf59"/>
  <path d="M54 38c-2-8-8-14-16-15-3-.5-5 1-6 3-1-2-3-4-6-4-4 0-7 3-7 7 0 2 1 4 2 5-1 0-2 1-2 2 0 2 2 3 4 3 2 0 3-1 4-2 1 1 3 2 5 2 4 0 7-2 9-5 2 1 4 2 6 2 2 0 4-1 5-3 0-1 0-2-1-3z" fill="#8fd97f"/>
  <path d="M28 36c2 2 6 2 8 0" stroke="#ffffff" stroke-width="1.5" stroke-linecap="round"/>
</svg>
